# AST/ASF file generated using VICON BodyLanguage
# -----------------------------------------------
:version 1.10
:name VICON
:units
  mass 1.0
  length 0.45
  angle deg
:documentation
   .ast/.asf automatically generated from VICON data using
   VICON BodyBuilder and BodyLanguage model FoxedUp or BRILLIANT.MOD
:root
   order TX TY TZ RX RY RZ
   axis XYZ
   position 0 0 0  
   orientation 0 0 0 
:bonedata
  begin
     id 1 
     name lhipjoint
     direction 0.522423 -0.726805 0.445902 
     length 2.25074 
     axis 0 0 0  XYZ
  end
  begin
     id 2 
     name lfemur
     direction 0.34202 -0.939693 0  
     length 6.54609  
     axis 0 0 20  XYZ
    dof rx ry rz
    limits (-160.0 20.0)
           (-70.0 70.0)
           (-60.0 70.0)
  end
  begin
     id 3 
     name ltibia
     direction 0.34202 -0.939693 0   
     length 7.7528   
     axis 0 0 20   XYZ
    dof rx
    limits (-10.0 170.0)
  end
  begin
     id 4 
     name lfoot
     direction 0.143696 -0.394801 0.90746   
     length 1.73269   
     axis -90 7.62852e-016 20   XYZ
    dof rx rz
    limits (-45.0 90.0)
           (-70.0 20.0)
  end
  begin
     id 5 
     name ltoes
     direction 1.53633e-011 -4.21912e-011 1   
     length 0.858383   
     axis -90 7.62852e-016 20   XYZ
    dof rx
    limits (-90.0 20.0)
  end
  begin
     id 6 
     name rhipjoint
     direction -0.515943 -0.73016 0.447961   
     length 2.2404  
     axis 0 0 0  XYZ 
  end
  begin
     id 7 
     name rfemur
     direction -0.34202 -0.939693 0   
     length 6.84377   
     axis 0 0 -20   XYZ
    dof rx ry rz
    limits (-160.0 20.0)
           (-70.0 70.0)
           (-70.0 60.0)
  end
  begin
     id 8 
     name rtibia
     direction -0.34202 -0.939693 0   
     length 7.57596   
     axis 0 0 -20   XYZ
    dof rx
    limits (-10.0 170.0)
 end
 begin
     id 9 
     name rfoot
     direction -0.0999372 -0.274575 0.956358   
     length 1.78783  
     axis -90 -7.62852e-016 -20   XYZ
    dof rx rz
    limits (-45.0 90.0)
           (-20.0 70.0)
  end
  begin
     id 10 
     name rtoes
     direction -1.53535e-011 -4.21895e-011 1   
     length 0.898614   
     axis -90 -7.62852e-016 -20   XYZ
    dof rx
    limits (-90.0 20.0)
  end
  begin
     id 11 
     name lowerback
     direction -0.011775 0.996164 -0.0867116   
     length 1.91499   
     axis 0 0 0   XYZ
    dof rx ry rz
    limits (-20.0 45.0)
           (-30.0 30.0)
           (-30.0 30.0)
  end
  begin
     id 12 
     name upperback
     direction -0.00189771 0.999673 -0.0254833   
     length 1.92213   
     axis 0 0 0   XYZ
    dof rx ry rz
    limits (-20.0 45.0)
           (-30.0 30.0)
           (-30.0 30.0)
  end
  begin
     id 13 
     name thorax
     direction 0.00335995 0.999878 0.0152401   
     length 1.93138   
     axis 0 0 0   XYZ
    dof rx ry rz
    limits (-20.0 45.0)
           (-30.0 30.0)
           (-30.0 30.0)
  end
  begin
     id 14 
     name lowerneck
     direction 0.00233191 0.998509 0.0545404   
     length 1.59408   
     axis 0 0 0   XYZ
    dof rx ry rz
    limits (-20.0 45.0)
           (-30.0 30.0)
           (-30.0 30.0)
  end
  begin
     id 15 
     name upperneck
     direction 0.07881 0.9956 -0.0506934   
     length 1.59344   
     axis 0 0 0   XYZ
    dof rx ry rz
    limits (-20.0 45.0)
           (-30.0 30.0)
           (-30.0 30.0)
  end
  begin
     id 16
     name head
     direction 0.0261681 0.999378 -0.0236299  
     length 1.60935  
     axis 0 0 0   XYZ
    dof rx ry rz
    limits (-20.0 45.0)
           (-30.0 30.0)
           (-30.0 30.0)
  end
  begin
     id 17 
     name lclavicle
     direction 0.96643 0.252035 0.0499195  
     length 3.82153  
     axis 0 0 0   XYZ
    dof ry rz
    limits (-20.0 10.0)
           (0.0 20.0)
  end
  begin
     id 18 
     name lhumerus
     direction 1 -4.48967e-011 -2.01614e-018   
     length 4.87796   
     axis 180 -30 -90   XYZ
    dof rx ry rz
    limits (-60.0 90.0)
           (-90.0 90.0)
           (-90.0 90.0)
  end
  begin
     id 19
     name lradius
     direction 1 -4.48958e-011 3.1409e-027   
     length 3.23169   
     axis 180 -30 -90   XYZ
    dof rx
    limits (-10.0 170.0)
  end
  begin
     id 20
     name lwrist
     direction 1 -4.48924e-011 1.0365e-027   
     length 1.61584   
     axis -2.56395e-016 90 90   XYZ
    dof ry
    limits (-180.0 0.0)
 end
  begin
     id 21 
     name lhand
     direction 1 -4.49055e-011 2.09488e-027   
     length 0.731324   
     axis -1.32723e-015 90 90   XYZ
    dof rx rz
    limits (-90.0 90.0)
           (-45.0 45.0)
  end
  begin
     id 22 
     name lfingers
     direction 1 -4.48935e-011 4.14981e-027   
     length 0.589612   
     axis -2.6545e-015 90 90   XYZ
    dof rx
    limits (0.0 90.0)
  end
  begin
     id 23
     name lthumb
     direction 0.707107 -6.35097e-011 0.707107   
     length 0.846569   
     axis -90 45 5.05613e-014   XYZ
    dof rx rz
    limits (-45.0 45.0)
           (-45.0 45.0)
  end
  begin
     id 24 
     name rclavicle
     direction -0.979337 0.201016 0.0221522   
     length 3.73827  
     axis 0 0 0   XYZ 
    dof ry rz
    limits (-10.0 20.0)
           (-20.0 0.0)
  end
  begin
     id 25 
     name rhumerus
     direction -1 -4.48971e-011 1.65907e-027  
     length 4.9143   
     axis 180 30 90   XYZ
    dof rx ry rz
    limits (-90.0 60.0)
           (-90.0 90.0)
           (-90.0 90.0)
  end
  begin
     id 26 
     name rradius
     direction -1 -4.4894e-011 2.17871e-028   
     length 3.29093   
     axis 180 30 90   XYZ
    dof rx
    limits (-10.0 170.0)
  end
  begin
     id 27 
     name rwrist
     direction -1 -4.48971e-011 1.04038e-027   
     length 1.64546   
     axis -2.56395e-016 -90 -90   XYZ
    dof ry
    limits (-180.0 0.0)
  end
  begin
     id 28
     name rhand
     direction -1 -4.49017e-011 2.08843e-027   
     length 0.54512   
     axis -1.32723e-015 -90 -90   XYZ
    dof rx rz
    limits (-90.0 90.0)
           (-45.0 45.0)
  end
  begin
     id 29
     name rfingers
     direction -1 -4.48918e-011 4.1439e-027   
     length 0.43949   
     axis -2.6545e-015 -90 -90   XYZ
    dof rx
    limits (0.0 90.0)
  end
  begin
     id 30
     name rthumb
     direction -0.707107 -6.35065e-011 0.707107   
     length 0.631022   
     axis -90 -45 -5.05613e-014   XYZ
    dof rx rz
    limits (-45.0 45.0)
           (-45.0 45.0)
  end
:hierarchy
  begin
    root lhipjoint rhipjoint lowerback
    lhipjoint lfemur
    lfemur ltibia
    ltibia lfoot
    lfoot ltoes
    rhipjoint rfemur
    rfemur rtibia
    rtibia rfoot
    rfoot rtoes
    lowerback upperback
    upperback thorax
    thorax lowerneck lclavicle rclavicle
    lowerneck upperneck
    upperneck head
    lclavicle lhumerus
    lhumerus lradius
    lradius lwrist
    lwrist lhand lthumb
    lhand lfingers
    rclavicle rhumerus
    rhumerus rradius
    rradius rwrist
    rwrist rhand rthumb
    rhand rfingers
  end

#!OML:ASF H:\BreakDance\Project 1\Capture day 1\Session 1\Male.ASF
:FULLY-SPECIFIED
:DEGREES
226
root 18.919 15.3937 5.85205 -163.311 -56.8198 173.767
lowerback 2.0668 5.20428 -6.2277
upperback 2.6488 6.60653 -6.50935
thorax 1.65379 3.11246 -3.31668
lowerneck -0.162409 4.36693 -2.65569
upperneck -17.1462 5.25086 -0.811875
head -5.18435 2.59521 -0.0294318
rclavicle -4.6118e-014 3.18055e-014
rhumerus -15.3 20.7564 -99.9377
rradius 90.4482
rwrist 3.36614
rhand -13.5547 -7.73822
rfingers 7.12502
rthumb 12.5585 -37.3408
lclavicle -4.6118e-014 3.18055e-014
lhumerus -0.707727 -44.4143 60.2452
lradius 94.9703
lwrist 9.16301
lhand -13.9931 -34.5856
lfingers 7.12502
lthumb 12.1358 -4.95757
rfemur -0.269838 -20.3715 23.8532
rtibia 42.0479
rfoot -21.3277 -8.33135
rtoes -18.37
lfemur -48.5223 13.312 -22.7013
ltibia 58.3291
lfoot -25.0122 3.05459
ltoes -34.2297
227
root 18.9997 15.3638 5.8812 -164.108 -56.6008 174.683
lowerback 2.60196 5.26674 -6.0492
upperback 2.90914 6.65157 -6.35582
thorax 1.62706 3.13494 -3.29287
lowerneck 0.201713 4.39123 -2.54409
upperneck -17.7072 5.2203 -1.08037
head -5.40965 2.58522 -0.144244
rclavicle -1.45908e-013 -1.59028e-015
rhumerus -17.5352 20.9303 -100.826
rradius 92.4595
rwrist 2.55716
rhand -13.2811 -6.81435
rfingers 7.12502
rthumb 12.8223 -36.4005
lclavicle -1.45908e-013 -1.59028e-015
lhumerus -3.52324 -44.1903 62.6284
lradius 97.1736
lwrist 9.58229
lhand -13.4054 -34.8916
lfingers 7.12502
lthumb 12.7024 -5.29794
rfemur 0.400363 -21.3388 24.1096
rtibia 40.7567
rfoot -22.5343 -7.83756
rtoes -20.3965
lfemur -49.0807 13.4874 -22.1014
ltibia 58.7122
lfoot -24.7997 3.14168
ltoes -34.2661
228
root 19.0832 15.3462 5.90968 -164.914 -56.3388 175.668
lowerback 3.14796 5.30556 -5.85732
upperback 3.14881 6.66443 -6.18055
thorax 1.57139 3.14222 -3.25581
lowerneck 0.568696 4.43632 -2.45282
upperneck -18.2248 5.22898 -1.27967
head -5.62578 2.59254 -0.236401
rclavicle -4.73108e-014 7.95139e-014
rhumerus -19.8237 21.0986 -101.751
rradius 94.2967
rwrist 1.81382
rhand -12.9515 -5.82436
rfingers 7.12502
rthumb 13.14 -35.3904
lclavicle -4.73108e-014 7.95139e-014
lhumerus -6.58938 -43.8229 65.2189
lradius 99.2509
lwrist 9.90094
lhand -12.6428 -35.2811
lfingers 7.12502
lthumb 13.4375 -5.73456
rfemur 0.831629 -22.3499 24.3398
rtibia 39.7864
rfoot -23.3206 -7.15318
rtoes -22.5656
lfemur -49.5613 13.6751 -21.4496
ltibia 58.8715
lfoot -24.4732 3.2235
ltoes -34.2571
229
root 19.1691 15.3441 5.93633 -165.541 -56.0491 176.553
lowerback 3.6692 5.31143 -5.73848
upperback 3.3472 6.63088 -6.02274
thorax 1.48016 3.12483 -3.19615
lowerneck 0.950239 4.50494 -2.32568
upperneck -18.7177 5.28113 -1.43257
head -5.83794 2.61639 -0.322982
rclavicle 2.34566e-014 -4.45278e-014
rhumerus -22.1288 21.239 -102.702
rradius 95.9327
rwrist 1.21127
rhand -12.5546 -4.82771
rfingers 7.12502
rthumb 13.5225 -34.3686
lclavicle 2.34566e-014 -4.45278e-014
lhumerus -9.878 -43.301 67.9731
lradius 101.181
lwrist 10.0791
lhand -11.7199 -35.6903
lfingers 7.12502
lthumb 14.3269 -6.20459
rfemur 0.956271 -23.4469 24.4683
rtibia 39.159
rfoot -23.7037 -6.1403
rtoes -24.5494
lfemur -49.9823 13.8208 -20.8538
ltibia 58.7595
lfoot -24.0444 3.34119
ltoes -34.2648
230
root 19.2586 15.3588 5.9599 -165.967 -55.6007 177.325
lowerback 4.13585 5.33785 -5.77341
upperback 3.51641 6.6198 -5.90661
thorax 1.37787 3.11392 -3.0936
lowerneck 1.24927 4.58259 -2.11934
upperneck -19.1719 5.35947 -1.55137
head -6.023 2.64419 -0.411398
rclavicle -5.32743e-014 6.04305e-014
rhumerus -24.3357 21.3296 -103.648
rradius 97.3483
rwrist 0.803135
rhand -12.0717 -3.89621
rfingers 7.12502
rthumb 13.988 -33.4056
lclavicle -5.32743e-014 6.04305e-014
lhumerus -13.2183 -42.6089 70.7426
lradius 102.944
lwrist 10.1207
lhand -10.6668 -36.0207
lfingers 7.12502
lthumb 15.3415 -6.60977
rfemur 0.747909 -24.5142 24.4793
rtibia 38.8708
rfoot -23.7274 -4.84451
rtoes -26.3619
lfemur -50.3346 14.0257 -20.338
ltibia 58.3641
lfoot -23.5315 3.53705
ltoes -34.3418
231
root 19.3517 15.3894 5.98101 -166.16 -54.9972 177.941
lowerback 4.54118 5.38816 -5.96158
upperback 3.6454 6.63337 -5.84922
thorax 1.25887 3.11102 -2.96644
lowerneck 1.53244 4.66756 -1.81782
upperneck -19.6119 5.46019 -1.65501
head -6.19868 2.67422 -0.512008
rclavicle -7.03698e-014 5.56597e-014
rhumerus -26.439 21.3532 -104.591
rradius 98.5547
rwrist 0.605224
rhand -11.5171 -3.09369
rfingers 7.12502
rthumb 14.5223 -32.5654
lclavicle -7.03698e-014 5.56597e-014
lhumerus -16.576 -41.7677 73.4809
lradius 104.536
lwrist 10.047
lhand -9.5621 -36.2564
lfingers 7.12502
lthumb 16.4053 -6.93011
rfemur 0.208579 -25.5652 24.3599
rtibia 38.9068
rfoot -23.4423 -3.06137
rtoes -27.5059
lfemur -50.6103 14.2481 -19.9137
ltibia 57.6978
lfoot -22.9562 3.84968
ltoes -34.5009
232
root 19.4473 15.4342 6.0005 -166.243 -54.1502 178.513
lowerback 4.88081 5.50493 -6.23562
upperback 3.73988 6.73032 -5.85735
thorax 1.13989 3.14708 -2.86068
lowerneck 1.76051 4.73904 -1.45203
upperneck -19.9966 5.56176 -1.70551
head -6.3469 2.69504 -0.60488
rclavicle 3.18055e-014 -6.67916e-014
rhumerus -28.3923 21.2882 -105.518
rradius 99.5635
rwrist 0.619547
rhand -10.956 -2.44895
rfingers 7.12502
rthumb 15.0629 -31.881
lclavicle 3.18055e-014 -6.67916e-014
lhumerus -19.8644 -40.8216 76.108
lradius 105.952
lwrist 9.89631
lhand -8.52409 -36.3584
lfingers 7.12502
lthumb 17.4045 -7.11756
rfemur -0.618371 -26.5301 24.1496
rtibia 39.2388
rfoot -22.8559 -0.691673
rtoes -27.9496
lfemur -50.7755 14.5631 -19.5098
ltibia 56.797
lfoot -22.3567 4.30005
ltoes -34.7363
233
root 19.5442 15.4907 6.01974 -166.305 -53.1014 179.124
lowerback 5.15914 5.67164 -6.49147
upperback 3.79621 6.89433 -5.91905
thorax 1.02382 3.2174 -2.8209
lowerneck 1.99179 4.80401 -1.0438
upperneck -20.3429 5.67009 -1.71707
head -6.48333 2.71245 -0.692883
rclavicle -5.80451e-014 -2.38542e-014
rhumerus -30.2166 21.1488 -106.434
rradius 100.392
rwrist 0.830926
rhand -10.4669 -1.93378
rfingers 7.12502
rthumb 15.534 -31.3298
lclavicle -5.80451e-014 -2.38542e-014
lhumerus -23.0895 -39.7864 78.6161
lradius 107.202
lwrist 9.70151
lhand -7.64672 -36.3451
lfingers 7.12502
lthumb 18.2487 -7.18112
rfemur -1.68405 -27.3771 23.9202
rtibia 39.8251
rfoot -21.9382 2.36327
rtoes -27.2061
lfemur -50.8137 14.9231 -19.049
ltibia 55.6913
lfoot -21.7344 4.90478
ltoes -34.9967
234
root 19.6417 15.5575 6.03943 -166.38 -51.9091 179.802
lowerback 5.35914 5.86392 -6.66253
upperback 3.81996 7.10124 -6.0201
thorax 0.931652 3.31177 -2.86504
lowerneck 2.26619 4.86919 -0.605881
upperneck -20.6738 5.78786 -1.72184
head -6.6217 2.73106 -0.785685
rclavicle -2.38542e-014 -1.90833e-014
rhumerus -31.9156 20.968 -107.329
rradius 101.057
rwrist 1.16592
rhand -10.1197 -1.5124
rfingers 7.12502
rthumb 15.8684 -30.8822
lclavicle -2.38542e-014 -1.90833e-014
lhumerus -26.2328 -38.6731 80.9932
lradius 108.3
lwrist 9.48866
lhand -6.98215 -36.2486
lfingers 7.12502
lthumb 18.888 -7.1457
rfemur -2.95158 -28.098 23.7249
rtibia 40.6112
rfoot -20.5124 6.05388
rtoes -24.8792
lfemur -50.7081 15.2614 -18.4806
ltibia 54.3999
lfoot -21.0984 5.62921
ltoes -35.1057
235
root 19.7375 15.6335 6.06075 -166.441 -50.7664 180.488
lowerback 5.48225 6.00368 -6.67754
upperback 3.84499 7.25649 -6.13822
thorax 0.904092 3.38394 -3.00024
lowerneck 2.58363 4.94719 -0.183774
upperneck -20.9947 5.92561 -1.73779
head -6.76456 2.76071 -0.882407
rclavicle -3.18055e-015 -3.65764e-014
rhumerus -33.4684 20.8299 -108.171
rradius 101.561
rwrist 1.5129
rhand -10.0011 -1.17418
rfingers 7.12502
rthumb 15.9826 -30.5348
lclavicle -3.18055e-015 -3.65764e-014
lhumerus -29.2651 -37.4614 83.2423
lradius 109.267
lwrist 9.30387
lhand -6.51779 -36.0768
lfingers 7.12502
lthumb 19.3345 -7.01797
rfemur -4.36027 -28.8137 23.5729
rtibia 41.5361
rfoot -18.3652 10.1037
rtoes -20.8473
lfemur -50.4379 15.3625 -17.793
ltibia 52.9149
lfoot -20.4401 6.45818
ltoes -35.0465
236
root 19.8327 15.7184 6.08301 -166.487 -49.7082 181.178
lowerback 5.52154 6.07009 -6.56001
upperback 3.88414 7.33573 -6.24174
thorax 0.951907 3.42121 -3.17708
lowerneck 2.89888 5.05202 0.178417
upperneck -21.2828 6.09571 -1.77755
head -6.89753 2.81211 -0.979131
rclavicle -1.51076e-014 1.03368e-013
rhumerus -34.8588 20.8241 -108.928
rradius 101.909
rwrist 1.76814
rhand -10.1719 -0.909672
rfingers 7.12502
rthumb 15.8181 -30.2834
lclavicle -1.51076e-014 1.03368e-013
lhumerus -32.1309 -36.1298 85.3521
lradius 110.117
lwrist 9.18831
lhand -6.23566 -35.8767
lfingers 7.12502
lthumb 19.6058 -6.84534
rfemur -5.88051 -29.4989 23.4949
rtibia 42.5365
rfoot -15.4169 14.046
rtoes -15.6021
lfemur -49.9933 15.1828 -16.9696
ltibia 51.2236
lfoot -19.8192 7.33051
ltoes -34.7751
237
root 19.9276 15.8122 6.10594 -166.428 -48.8637 181.768
lowerback 5.49147 6.01715 -6.34768
upperback 3.94781 7.27522 -6.32287
thorax 1.07091 3.39098 -3.36465
lowerneck 3.14554 5.1965 0.48277
upperneck -21.4909 6.30908 -1.87132
head -6.99197 2.8941 -1.0838
rclavicle -9.85972e-014 4.6118e-014
rhumerus -36.0951 20.993 -109.581
rradius 102.129
rwrist 1.85514
rhand -10.5851 -0.711502
rfingers 7.12502
rthumb 15.4202 -30.1164
lclavicle -9.85972e-014 4.6118e-014
lhumerus -34.7687 -34.6998 87.2997
lradius 110.856
lwrist 9.15896
lhand -6.15477 -35.6899
lfingers 7.12502
lthumb 19.6836 -6.66644
rfemur -7.4874 -30.2586 23.4591
rtibia 43.5545
rfoot -11.7805 17.5299
rtoes -9.87953
lfemur -49.4056 14.58 -16.0686
ltibia 49.3077
lfoot -19.359 8.17204
ltoes -34.3019
238
root 20.0238 15.9142 6.12762 -166.302 -48.0895 182.299
lowerback 5.37971 5.90445 -6.12916
upperback 4.03216 7.14937 -6.36858
thorax 1.25099 3.32817 -3.50619
lowerneck 3.25492 5.38812 0.735137
upperneck -21.578 6.573 -2.02481
head -7.02119 3.01145 -1.19642
rclavicle 1.98785e-014 2.54444e-014
rhumerus -37.1686 21.3501 -110.118
rradius 102.252
rwrist 1.7321
rhand -11.1315 -0.565787
rfingers 7.12502
rthumb 14.8938 -30.0104
lclavicle 1.98785e-014 2.54444e-014
lhumerus -37.1136 -33.2136 89.0583
lradius 111.493
lwrist 9.23996
lhand -6.24911 -35.5284
lfingers 7.12502
lthumb 19.5929 -6.49566
rfemur -9.14182 -30.9338 23.4715
rtibia 44.5387
rfoot -7.89867 20.2212
rtoes -5.36081
lfemur -48.6686 13.702 -15.0823
ltibia 47.1738
lfoot -19.2146 8.92973
ltoes -33.7378
